{
  "accessors": [
    {
      "bufferView": 2,
      "componentType": 5126,
      "count": 6568,
      "max": [
        0.22838369011878967,
        0.24196664988994598,
        0.5634720921516418
      ],
      "min": [
        -0.19355985522270203,
        -0.2730458378791809,
        -0.0054273828864097595
      ],
      "type": "VEC3"
    },
    {
      "bufferView": 2,
      "byteOffset": 78816,
      "componentType": 5126,
      "count": 6568,
      "max": [
        0.9999968409538269,
        0.9999989867210388,
        0.9999997019767761
      ],
      "min": [
        -0.9999851584434509,
        -0.9999969601631165,
        -0.403877317905426
      ],
      "type": "VEC3"
    },
    {
      "bufferView": 3,
      "componentType": 5126,
      "count": 6568,
      "max": [
        0.9999740719795227,
        0.9999536275863647,
        0.9999872446060181,
        1.0
      ],
      "min": [
        -0.999994695186615,
        -0.9999962449073792,
        -0.9999901056289673,
        1.0
      ],
      "type": "VEC4"
    },
    {
      "bufferView": 1,
      "componentType": 5126,
      "count": 6568,
      "max": [
        0.9558365941047668,
        0.997904896736145
      ],
      "min": [
        0.03594616428017616,
        0.0019046664237976074
      ],
      "type": "VEC2"
    },
    {
      "bufferView": 1,
      "byteOffset": 52544,
      "componentType": 5126,
      "count": 6568,
      "max": [
        0.9558365941047668,
        0.997904896736145
      ],
      "min": [
        0.03594616428017616,
        0.0019046664237976074
      ],
      "type": "VEC2"
    },
    {
      "bufferView": 0,
      "componentType": 5125,
      "count": 34296,
      "type": "SCALAR"
    }
  ],
  "asset": {
    "extras": {
      "author": "AntonCla (https://sketchfab.com/antoncla)",
      "license": "CC-BY-4.0 (http://creativecommons.org/licenses/by/4.0/)",
      "source": "https://sketchfab.com/3d-models/rank-stone-pumgyeseok-84d7c6b36bc54e969280d8ed0e290acc",
      "title": "Rank Stone - Pumgyeseok - 품계석"
    },
    "generator": "Sketchfab-16.12.0",
    "version": "2.0"
  },
  "bufferViews": [
    {
      "buffer": 0,
      "byteLength": 137184,
      "name": "floatBufferViews",
      "target": 34963
    },
    {
      "buffer": 0,
      "byteLength": 105088,
      "byteOffset": 137184,
      "byteStride": 8,
      "name": "floatBufferViews",
      "target": 34962
    },
    {
      "buffer": 0,
      "byteLength": 157632,
      "byteOffset": 242272,
      "byteStride": 12,
      "name": "floatBufferViews",
      "target": 34962
    },
    {
      "buffer": 0,
      "byteLength": 105088,
      "byteOffset": 399904,
      "byteStride": 16,
      "name": "floatBufferViews",
      "target": 34962
    }
  ],
  "buffers": [
    {
      "byteLength": 504992,
      "uri": "scene.bin"
    }
  ],
  "images": [
    {
      "uri": "textures/KoreanPedestal_Mat_baseColor.png"
    },
    {
      "uri": "textures/KoreanPedestal_Mat_normal.png"
    }
  ],
  "materials": [
    {
      "doubleSided": true,
      "name": "KoreanPedestal_Mat",
      "normalTexture": {
        "index": 1
      },
      "pbrMetallicRoughness": {
        "baseColorTexture": {
          "index": 0
        },
        "metallicFactor": 0.0
      }
    }
  ],
  "meshes": [
    {
      "name": "Pedestal_KoreanPedestal_Mat_0",
      "primitives": [
        {
          "attributes": {
            "NORMAL": 1,
            "POSITION": 0,
            "TANGENT": 2,
            "TEXCOORD_0": 3,
            "TEXCOORD_1": 4
          },
          "indices": 5,
          "material": 0,
          "mode": 4
        }
      ]
    }
  ],
  "nodes": [
    {
      "children": [
        1
      ],
      "matrix": [
        1.0,
        0.0,
        0.0,
        0.0,
        0.0,
        2.220446049250313e-16,
        -1.0,
        0.0,
        0.0,
        1.0,
        2.220446049250313e-16,
        0.0,
        0.0,
        0.0,
        0.0,
        1.0
      ],
      "name": "Sketchfab_model"
    },
    {
      "children": [
        2
      ],
      "matrix": [
        0.009999999776482582,
        0.0,
        0.0,
        0.0,
        0.0,
        0.0,
        0.009999999776482582,
        0.0,
        0.0,
        -0.009999999776482582,
        0.0,
        0.0,
        0.0,
        0.0,
        0.0,
        1.0
      ],
      "name": "Korean_Pedestal.fbx"
    },
    {
      "children": [
        3
      ],
      "name": "RootNode"
    },
    {
      "children": [
        4
      ],
      "matrix": [
        100.0,
        0.0,
        0.0,
        0.0,
        0.0,
        -1.629206793918314e-05,
        -99.99999999999868,
        0.0,
        0.0,
        99.99999999999868,
        -1.629206793918314e-05,
        0.0,
        0.0,
        0.0,
        0.0,
        1.0
      ],
      "name": "Pedestal"
    },
    {
      "mesh": 0,
      "name": "Pedestal_KoreanPedestal_Mat_0"
    }
  ],
  "samplers": [
    {
      "magFilter": 9729,
      "minFilter": 9987,
      "wrapS": 10497,
      "wrapT": 10497
    }
  ],
  "scene": 0,
  "scenes": [
    {
      "name": "Sketchfab_Scene",
      "nodes": [
        0
      ]
    }
  ],
  "textures": [
    {
      "sampler": 0,
      "source": 0
    },
    {
      "sampler": 0,
      "source": 1
    }
  ]
}
