{
  "accessors": [
    {
      "bufferView": 2,
      "componentType": 5126,
      "count": 10066,
      "max": [
        2.1535263061523438,
        0.08246046304702759,
        1.0330883264541626
      ],
      "min": [
        -0.04143897444009781,
        -0.08246034383773804,
        -1.0330884456634521
      ],
      "type": "VEC3"
    },
    {
      "bufferView": 2,
      "byteOffset": 120792,
      "componentType": 5126,
      "count": 10066,
      "max": [
        1.0,
        1.0,
        1.0
      ],
      "min": [
        -1.0,
        -1.0,
        -1.0
      ],
      "type": "VEC3"
    },
    {
      "bufferView": 3,
      "componentType": 5126,
      "count": 10066,
      "max": [
        1.0,
        1.0,
        1.0,
        1.0
      ],
      "min": [
        -1.0,
        -1.0,
        -0.8388851881027222,
        1.0
      ],
      "type": "VEC4"
    },
    {
      "bufferView": 1,
      "componentType": 5126,
      "count": 10066,
      "max": [
        0.9980080723762512,
        0.9324267506599426
      ],
      "min": [
        0.00199203216470778,
        0.0018611314008012414
      ],
      "type": "VEC2"
    },
    {
      "bufferView": 0,
      "componentType": 5125,
      "count": 42576,
      "type": "SCALAR"
    },
    {
      "bufferView": 4,
      "componentType": 5126,
      "count": 59,
      "max": [
        2.0833332538604736
      ],
      "min": [
        0.0416666679084301
      ],
      "type": "SCALAR"
    },
    {
      "bufferView": 5,
      "componentType": 5126,
      "count": 59,
      "max": [
        -3.9903438091278076,
        4.288076400756836,
        0.14129279553890228
      ],
      "min": [
        -4.033933639526367,
        4.24937105178833,
        0.14129279553890228
      ],
      "type": "VEC3"
    },
    {
      "bufferView": 4,
      "byteOffset": 236,
      "componentType": 5126,
      "count": 59,
      "max": [
        2.0833332538604736
      ],
      "min": [
        0.0416666679084301
      ],
      "type": "SCALAR"
    },
    {
      "bufferView": 6,
      "componentType": 5126,
      "count": 59,
      "max": [
        0.0,
        0.0,
        0.6243884563446045,
        1.0
      ],
      "min": [
        0.0,
        0.0,
        -0.00022238073870539665,
        0.7811139822006226
      ],
      "type": "VEC4"
    },
    {
      "bufferView": 4,
      "byteOffset": 472,
      "componentType": 5126,
      "count": 36,
      "max": [
        2.0416667461395264
      ],
      "min": [
        0.9166666865348816
      ],
      "type": "SCALAR"
    },
    {
      "bufferView": 6,
      "byteOffset": 944,
      "componentType": 5126,
      "count": 36,
      "max": [
        0.0,
        0.0,
        0.6243765950202942,
        1.0
      ],
      "min": [
        0.0,
        0.0,
        0.0,
        0.7811234593391418
      ],
      "type": "VEC4"
    }
  ],
  "animations": [
    {
      "channels": [
        {
          "sampler": 0,
          "target": {
            "node": 4,
            "path": "translation"
          }
        },
        {
          "sampler": 1,
          "target": {
            "node": 4,
            "path": "rotation"
          }
        },
        {
          "sampler": 2,
          "target": {
            "node": 6,
            "path": "rotation"
          }
        }
      ],
      "name": "Take 001",
      "samplers": [
        {
          "input": 5,
          "interpolation": "LINEAR",
          "output": 6
        },
        {
          "input": 7,
          "interpolation": "LINEAR",
          "output": 8
        },
        {
          "input": 9,
          "interpolation": "LINEAR",
          "output": 10
        }
      ]
    }
  ],
  "asset": {
    "extras": {
      "author": "Jason_Phillips (https://sketchfab.com/Jason_Phillips)",
      "license": "CC-BY-4.0 (http://creativecommons.org/licenses/by/4.0/)",
      "source": "https://sketchfab.com/3d-models/trapdoor-d6a13c6c9b7f45a7a2faa5259878d774",
      "title": "trapdoor"
    },
    "generator": "Sketchfab-14.87.0",
    "version": "2.0"
  },
  "bufferViews": [
    {
      "buffer": 0,
      "byteLength": 170304,
      "name": "floatBufferViews",
      "target": 34963
    },
    {
      "buffer": 0,
      "byteLength": 80528,
      "byteOffset": 170304,
      "byteStride": 8,
      "name": "floatBufferViews",
      "target": 34962
    },
    {
      "buffer": 0,
      "byteLength": 241584,
      "byteOffset": 250832,
      "byteStride": 12,
      "name": "floatBufferViews",
      "target": 34962
    },
    {
      "buffer": 0,
      "byteLength": 161056,
      "byteOffset": 492416,
      "byteStride": 16,
      "name": "floatBufferViews",
      "target": 34962
    },
    {
      "buffer": 0,
      "byteLength": 616,
      "byteOffset": 653472,
      "name": "floatBufferViews"
    },
    {
      "buffer": 0,
      "byteLength": 708,
      "byteOffset": 654088,
      "byteStride": 12,
      "name": "floatBufferViews"
    },
    {
      "buffer": 0,
      "byteLength": 1520,
      "byteOffset": 654796,
      "byteStride": 16,
      "name": "floatBufferViews"
    }
  ],
  "buffers": [
    {
      "byteLength": 656316,
      "uri": "scene.bin"
    }
  ],
  "extensionsUsed": [
    "KHR_materials_specular"
  ],
  "images": [
    {
      "uri": "textures/aiStandardSurface2_baseColor.png"
    },
    {
      "uri": "textures/aiStandardSurface2_metallicRoughness.png"
    },
    {
      "uri": "textures/aiStandardSurface2_normal.png"
    }
  ],
  "materials": [
    {
      "doubleSided": true,
      "extensions": {
        "KHR_materials_specular": {
          "specularColorFactor": [
            1.0,
            1.0,
            1.0
          ],
          "specularFactor": 0.0
        }
      },
      "name": "aiStandardSurface2",
      "normalTexture": {
        "index": 2
      },
      "occlusionTexture": {
        "index": 1
      },
      "pbrMetallicRoughness": {
        "baseColorTexture": {
          "index": 0
        },
        "metallicRoughnessTexture": {
          "index": 1
        }
      }
    }
  ],
  "meshes": [
    {
      "name": "pCube6_aiStandardSurface2_0",
      "primitives": [
        {
          "attributes": {
            "NORMAL": 1,
            "POSITION": 0,
            "TANGENT": 2,
            "TEXCOORD_0": 3
          },
          "indices": 4,
          "material": 0,
          "mode": 4
        }
      ]
    }
  ],
  "nodes": [
    {
      "children": [
        1
      ],
      "matrix": [
        47.4690055847168,
        0.0,
        0.0,
        0.0,
        0.0,
        1.0540236591242546e-14,
        -47.4690055847168,
        0.0,
        0.0,
        47.4690055847168,
        1.0540236591242546e-14,
        0.0,
        0.0,
        0.0,
        0.0,
        1.0
      ],
      "name": "Sketchfab_model"
    },
    {
      "children": [
        2
      ],
      "matrix": [
        0.009999999776482582,
        0.0,
        0.0,
        0.0,
        0.0,
        0.0,
        0.009999999776482582,
        0.0,
        0.0,
        -0.009999999776482582,
        0.0,
        0.0,
        0.0,
        0.0,
        0.0,
        1.0
      ],
      "name": "7e8ab0566b344fb2897ad1fc0ef64319.fbx"
    },
    {
      "children": [
        3
      ],
      "name": "Object_2"
    },
    {
      "children": [
        4,
        6
      ],
      "name": "RootNode"
    },
    {
      "children": [
        5
      ],
      "name": "pCube6",
      "rotation": [
        0.0,
        0.0,
        0.5396938323974609,
        0.841861367225647
      ],
      "translation": [
        -3.999941110610962,
        4.250879287719727,
        0.14129279553890228
      ]
    },
    {
      "mesh": 0,
      "name": "pCube6_aiStandardSurface2_0"
    },
    {
      "name": "nurbsCircle2",
      "rotation": [
        0.0,
        0.0,
        0.5396938323974609,
        0.841861367225647
      ],
      "translation": [
        -3.9879400730133057,
        4.295977592468262,
        0.1320245862007141
      ]
    }
  ],
  "samplers": [
    {
      "magFilter": 9729,
      "minFilter": 9987,
      "wrapS": 10497,
      "wrapT": 10497
    }
  ],
  "scene": 0,
  "scenes": [
    {
      "name": "Sketchfab_Scene",
      "nodes": [
        0
      ]
    }
  ],
  "textures": [
    {
      "sampler": 0,
      "source": 0
    },
    {
      "sampler": 0,
      "source": 1
    },
    {
      "sampler": 0,
      "source": 2
    }
  ]
}
