{
  "accessors": [
    {
      "bufferView": 2,
      "componentType": 5126,
      "count": 65532,
      "max": [
        0.7492300271987915,
        1.747380018234253,
        2.5973498821258545
      ],
      "min": [
        -0.8758400082588196,
        -0.8152199983596802,
        -0.026559999212622643
      ],
      "type": "VEC3"
    },
    {
      "bufferView": 2,
      "byteOffset": 786384,
      "componentType": 5126,
      "count": 65532,
      "max": [
        0.9999961256980896,
        0.9999982118606567,
        0.9999980926513672
      ],
      "min": [
        -0.9999974966049194,
        -0.99998939037323,
        -0.9993610382080078
      ],
      "type": "VEC3"
    },
    {
      "bufferView": 1,
      "componentType": 5126,
      "count": 65532,
      "max": [
        0.9978200197219849,
        0.9971160292625427
      ],
      "min": [
        0.0020979999098926783,
        0.0021730000153183937
      ],
      "type": "VEC2"
    },
    {
      "bufferView": 0,
      "componentType": 5125,
      "count": 337575,
      "type": "SCALAR"
    },
    {
      "bufferView": 2,
      "byteOffset": 1572768,
      "componentType": 5126,
      "count": 65532,
      "max": [
        0.7492300271987915,
        1.747380018234253,
        2.6014199256896973
      ],
      "min": [
        -0.8758400082588196,
        -0.8152199983596802,
        -0.0456399992108345
      ],
      "type": "VEC3"
    },
    {
      "bufferView": 2,
      "byteOffset": 2359152,
      "componentType": 5126,
      "count": 65532,
      "max": [
        0.9999988675117493,
        0.9999979138374329,
        0.9999957084655762
      ],
      "min": [
        -0.9999866485595703,
        -0.9999962449073792,
        -0.9253525137901306
      ],
      "type": "VEC3"
    },
    {
      "bufferView": 1,
      "byteOffset": 524256,
      "componentType": 5126,
      "count": 65532,
      "max": [
        0.9956949949264526,
        0.9979209899902344
      ],
      "min": [
        0.002111000008881092,
        0.012728000059723854
      ],
      "type": "VEC2"
    },
    {
      "bufferView": 0,
      "byteOffset": 1350300,
      "componentType": 5125,
      "count": 352251,
      "type": "SCALAR"
    },
    {
      "bufferView": 2,
      "byteOffset": 3145536,
      "componentType": 5126,
      "count": 23439,
      "max": [
        0.7293400168418884,
        1.747380018234253,
        2.5704500675201416
      ],
      "min": [
        -0.8758400082588196,
        -0.8152199983596802,
        0.04884999990463257
      ],
      "type": "VEC3"
    },
    {
      "bufferView": 2,
      "byteOffset": 3426804,
      "componentType": 5126,
      "count": 23439,
      "max": [
        0.9999799728393555,
        0.9999373555183411,
        0.9999794363975525
      ],
      "min": [
        -0.9999918937683105,
        -1.0,
        -0.9993610382080078
      ],
      "type": "VEC3"
    },
    {
      "bufferView": 1,
      "byteOffset": 1048512,
      "componentType": 5126,
      "count": 23439,
      "max": [
        0.9977759718894958,
        0.8756200075149536
      ],
      "min": [
        0.05754699930548668,
        0.1695529967546463
      ],
      "type": "VEC2"
    },
    {
      "bufferView": 0,
      "byteOffset": 2759304,
      "componentType": 5125,
      "count": 117699,
      "type": "SCALAR"
    }
  ],
  "asset": {
    "extras": {
      "author": "TerraPictures (https://sketchfab.com/TerraPictures)",
      "license": "CC-BY-4.0 (http://creativecommons.org/licenses/by/4.0/)",
      "source": "https://sketchfab.com/3d-models/a22ecb08e4ce4fcb8a204b83203d4637",
      "title": "眞光寺　寺標兼供養塔兼道標"
    },
    "generator": "Sketchfab-15.32.0",
    "version": "2.0"
  },
  "bufferViews": [
    {
      "buffer": 0,
      "byteLength": 3230100,
      "name": "floatBufferViews",
      "target": 34963
    },
    {
      "buffer": 0,
      "byteLength": 1236024,
      "byteOffset": 3230100,
      "byteStride": 8,
      "name": "floatBufferViews",
      "target": 34962
    },
    {
      "buffer": 0,
      "byteLength": 3708072,
      "byteOffset": 4466124,
      "byteStride": 12,
      "name": "floatBufferViews",
      "target": 34962
    }
  ],
  "buffers": [
    {
      "byteLength": 8174196,
      "uri": "scene.bin"
    }
  ],
  "extensionsUsed": [
    "KHR_materials_unlit"
  ],
  "images": [
    {
      "uri": "textures/main_baseColor.jpeg"
    }
  ],
  "materials": [
    {
      "doubleSided": true,
      "extensions": {
        "KHR_materials_unlit": {}
      },
      "name": "main",
      "pbrMetallicRoughness": {
        "baseColorTexture": {
          "index": 0
        },
        "metallicFactor": 0.0
      }
    }
  ],
  "meshes": [
    {
      "name": "Object_0",
      "primitives": [
        {
          "attributes": {
            "NORMAL": 1,
            "POSITION": 0,
            "TEXCOORD_0": 2
          },
          "indices": 3,
          "material": 0,
          "mode": 4
        }
      ]
    },
    {
      "name": "Object_1",
      "primitives": [
        {
          "attributes": {
            "NORMAL": 5,
            "POSITION": 4,
            "TEXCOORD_0": 6
          },
          "indices": 7,
          "material": 0,
          "mode": 4
        }
      ]
    },
    {
      "name": "Object_2",
      "primitives": [
        {
          "attributes": {
            "NORMAL": 9,
            "POSITION": 8,
            "TEXCOORD_0": 10
          },
          "indices": 11,
          "material": 0,
          "mode": 4
        }
      ]
    }
  ],
  "nodes": [
    {
      "children": [
        1
      ],
      "matrix": [
        1.0,
        0.0,
        0.0,
        0.0,
        0.0,
        2.220446049250313e-16,
        -1.0,
        0.0,
        0.0,
        1.0,
        2.220446049250313e-16,
        0.0,
        0.0,
        0.0,
        0.0,
        1.0
      ],
      "name": "Sketchfab_model"
    },
    {
      "children": [
        2,
        3,
        4
      ],
      "name": "ShikohjiSekitoh.obj.cleaner.materialmerger.gles"
    },
    {
      "mesh": 0,
      "name": "Object_2"
    },
    {
      "mesh": 1,
      "name": "Object_3"
    },
    {
      "mesh": 2,
      "name": "Object_4"
    }
  ],
  "samplers": [
    {
      "magFilter": 9729,
      "minFilter": 9987,
      "wrapS": 10497,
      "wrapT": 10497
    }
  ],
  "scene": 0,
  "scenes": [
    {
      "name": "Sketchfab_Scene",
      "nodes": [
        0
      ]
    }
  ],
  "textures": [
    {
      "sampler": 0,
      "source": 0
    }
  ]
}
