{
  "accessors": [
    {
      "bufferView": 2,
      "componentType": 5126,
      "count": 11856,
      "max": [
        -46.818355560302734,
        12.241421699523926,
        13.361263275146484
      ],
      "min": [
        -69.48118591308594,
        0.01590251736342907,
        -12.09579849243164
      ],
      "type": "VEC3"
    },
    {
      "bufferView": 2,
      "byteOffset": 142272,
      "componentType": 5126,
      "count": 11856,
      "max": [
        1.0,
        1.0,
        1.0
      ],
      "min": [
        -1.0,
        -1.0,
        -1.0
      ],
      "type": "VEC3"
    },
    {
      "bufferView": 3,
      "componentType": 5126,
      "count": 11856,
      "max": [
        1.0,
        1.0,
        1.0,
        1.0
      ],
      "min": [
        -1.0,
        -1.0,
        -1.0,
        -1.0
      ],
      "type": "VEC4"
    },
    {
      "bufferView": 1,
      "componentType": 5126,
      "count": 11856,
      "max": [
        0.9987481832504272,
        0.998779296875
      ],
      "min": [
        0.001220703125,
        0.001220703125
      ],
      "type": "VEC2"
    },
    {
      "bufferView": 1,
      "byteOffset": 94848,
      "componentType": 5126,
      "count": 11856,
      "max": [
        0.9987481832504272,
        0.998779296875
      ],
      "min": [
        0.001220703125,
        0.001220703125
      ],
      "type": "VEC2"
    },
    {
      "bufferView": 1,
      "byteOffset": 189696,
      "componentType": 5126,
      "count": 11856,
      "max": [
        0.9987481832504272,
        0.998779296875
      ],
      "min": [
        0.001220703125,
        0.001220703125
      ],
      "type": "VEC2"
    },
    {
      "bufferView": 0,
      "componentType": 5125,
      "count": 23616,
      "type": "SCALAR"
    }
  ],
  "asset": {
    "extras": {
      "author": "JanaB (https://sketchfab.com/spaamscheissxd)",
      "license": "CC-BY-4.0 (http://creativecommons.org/licenses/by/4.0/)",
      "source": "https://sketchfab.com/3d-models/simple-japanese-house-1-398a48e0559e4cec90cecbbfd25ca684",
      "title": "Simple Japanese House 1"
    },
    "generator": "Sketchfab-14.10.0",
    "version": "2.0"
  },
  "bufferViews": [
    {
      "buffer": 0,
      "byteLength": 94464,
      "name": "floatBufferViews",
      "target": 34963
    },
    {
      "buffer": 0,
      "byteLength": 284544,
      "byteOffset": 94464,
      "byteStride": 8,
      "name": "floatBufferViews",
      "target": 34962
    },
    {
      "buffer": 0,
      "byteLength": 284544,
      "byteOffset": 379008,
      "byteStride": 12,
      "name": "floatBufferViews",
      "target": 34962
    },
    {
      "buffer": 0,
      "byteLength": 189696,
      "byteOffset": 663552,
      "byteStride": 16,
      "name": "floatBufferViews",
      "target": 34962
    }
  ],
  "buffers": [
    {
      "byteLength": 853248,
      "uri": "scene.bin"
    }
  ],
  "images": [
    {
      "uri": "textures/MAT_JPHouse_baseColor.png"
    },
    {
      "uri": "textures/MAT_JPHouse_metallicRoughness.png"
    },
    {
      "uri": "textures/MAT_JPHouse_emissive.png"
    },
    {
      "uri": "textures/MAT_JPHouse_normal.png"
    }
  ],
  "materials": [
    {
      "doubleSided": true,
      "emissiveFactor": [
        1.0,
        1.0,
        1.0
      ],
      "emissiveTexture": {
        "index": 2
      },
      "name": "MAT_JPHouse",
      "normalTexture": {
        "index": 3
      },
      "pbrMetallicRoughness": {
        "baseColorTexture": {
          "index": 0
        },
        "metallicRoughnessTexture": {
          "index": 1
        }
      }
    }
  ],
  "meshes": [
    {
      "name": "JPHouse1_low_MAT_JPHouse_0",
      "primitives": [
        {
          "attributes": {
            "NORMAL": 1,
            "POSITION": 0,
            "TANGENT": 2,
            "TEXCOORD_0": 3,
            "TEXCOORD_1": 4,
            "TEXCOORD_2": 5
          },
          "indices": 6,
          "material": 0,
          "mode": 4
        }
      ]
    }
  ],
  "nodes": [
    {
      "children": [
        1
      ],
      "matrix": [
        1.0,
        0.0,
        0.0,
        0.0,
        0.0,
        2.220446049250313e-16,
        -1.0,
        0.0,
        0.0,
        1.0,
        2.220446049250313e-16,
        0.0,
        0.0,
        0.0,
        0.0,
        1.0
      ],
      "name": "Sketchfab_model"
    },
    {
      "children": [
        2
      ],
      "matrix": [
        0.009999999776482582,
        0.0,
        0.0,
        0.0,
        0.0,
        0.0,
        0.009999999776482582,
        0.0,
        0.0,
        -0.009999999776482582,
        0.0,
        0.0,
        0.0,
        0.0,
        0.0,
        1.0
      ],
      "name": "1485f057c3e44f2699857bbf6d906adc.fbx"
    },
    {
      "children": [
        3
      ],
      "name": "RootNode"
    },
    {
      "children": [
        4
      ],
      "matrix": [
        31.21391487121582,
        0.0,
        0.0,
        0.0,
        0.0,
        31.213914871215405,
        5.085392390569285e-06,
        0.0,
        0.0,
        -5.085392390569285e-06,
        31.213914871215405,
        0.0,
        1886.22802734375,
        0.0,
        -19.750045776367188,
        1.0
      ],
      "name": "JPHouse1_low"
    },
    {
      "mesh": 0,
      "name": "JPHouse1_low_MAT_JPHouse_0"
    }
  ],
  "samplers": [
    {
      "magFilter": 9729,
      "minFilter": 9987,
      "wrapS": 10497,
      "wrapT": 10497
    }
  ],
  "scene": 0,
  "scenes": [
    {
      "name": "Sketchfab_Scene",
      "nodes": [
        0
      ]
    }
  ],
  "textures": [
    {
      "sampler": 0,
      "source": 0
    },
    {
      "sampler": 0,
      "source": 1
    },
    {
      "sampler": 0,
      "source": 2
    },
    {
      "sampler": 0,
      "source": 3
    }
  ]
}
