{
  "accessors": [
    {
      "bufferView": 2,
      "componentType": 5126,
      "count": 14104,
      "max": [
        3.822266101837158,
        2.7593472003936768,
        6.443271160125732
      ],
      "min": [
        -4.192448616027832,
        -4.466492652893066,
        -0.0015333890914916992
      ],
      "type": "VEC3"
    },
    {
      "bufferView": 2,
      "byteOffset": 169248,
      "componentType": 5126,
      "count": 14104,
      "max": [
        0.9955381751060486,
        0.9954102635383606,
        0.9829866290092468
      ],
      "min": [
        -0.9955456256866455,
        -0.9954367280006409,
        -0.9826900959014893
      ],
      "type": "VEC3"
    },
    {
      "bufferView": 3,
      "componentType": 5126,
      "count": 14104,
      "max": [
        0.955415666103363,
        0.9999997615814209,
        0.9998363256454468,
        1.0
      ],
      "min": [
        -0.9554131031036377,
        -0.9999997615814209,
        -0.9998157620429993,
        -1.0
      ],
      "type": "VEC4"
    },
    {
      "bufferView": 1,
      "componentType": 5126,
      "count": 14104,
      "max": [
        0.995509147644043,
        0.7988633513450623
      ],
      "min": [
        0.002117101103067398,
        0.000873721088282764
      ],
      "type": "VEC2"
    },
    {
      "bufferView": 0,
      "componentType": 5125,
      "count": 47268,
      "type": "SCALAR"
    },
    {
      "bufferView": 2,
      "byteOffset": 338496,
      "componentType": 5126,
      "count": 15,
      "max": [
        2.9103078842163086,
        -3.619295120239258,
        2.445561408996582
      ],
      "min": [
        2.3536949157714844,
        -3.619295120239258,
        1.7597784996032715
      ],
      "type": "VEC3"
    },
    {
      "bufferView": 2,
      "byteOffset": 338676,
      "componentType": 5126,
      "count": 15,
      "max": [
        0.0,
        -1.0,
        0.0
      ],
      "min": [
        0.0,
        -1.0,
        0.0
      ],
      "type": "VEC3"
    },
    {
      "bufferView": 1,
      "byteOffset": 112832,
      "componentType": 5126,
      "count": 15,
      "max": [
        0.0,
        0.0
      ],
      "min": [
        0.0,
        0.0
      ],
      "type": "VEC2"
    },
    {
      "bufferView": 0,
      "byteOffset": 189072,
      "componentType": 5125,
      "count": 39,
      "type": "SCALAR"
    },
    {
      "bufferView": 2,
      "byteOffset": 338856,
      "componentType": 5126,
      "count": 6751,
      "max": [
        4.6559906005859375,
        3.020432710647583,
        7.620429039001465
      ],
      "min": [
        -5.172585487365723,
        -4.569767951965332,
        -0.09969961643218994
      ],
      "type": "VEC3"
    },
    {
      "bufferView": 2,
      "byteOffset": 419868,
      "componentType": 5126,
      "count": 6751,
      "max": [
        1.0,
        1.0,
        1.0
      ],
      "min": [
        -1.0,
        -1.0,
        -1.0
      ],
      "type": "VEC3"
    },
    {
      "bufferView": 3,
      "byteOffset": 225664,
      "componentType": 5126,
      "count": 6751,
      "max": [
        1.0,
        1.0,
        1.0,
        1.0
      ],
      "min": [
        -1.0,
        -1.0,
        -1.0,
        -1.0
      ],
      "type": "VEC4"
    },
    {
      "bufferView": 1,
      "byteOffset": 112952,
      "componentType": 5126,
      "count": 6751,
      "max": [
        4.116063117980957,
        4.519980430603027
      ],
      "min": [
        -1.9598219394683838,
        -6.103241920471191
      ],
      "type": "VEC2"
    },
    {
      "bufferView": 0,
      "byteOffset": 189228,
      "componentType": 5125,
      "count": 11664,
      "type": "SCALAR"
    },
    {
      "bufferView": 2,
      "byteOffset": 500880,
      "componentType": 5126,
      "count": 213,
      "max": [
        3.746109962463379,
        2.7785799503326416,
        6.430858612060547
      ],
      "min": [
        -4.169251918792725,
        -3.5930356979370117,
        1.6185715198516846
      ],
      "type": "VEC3"
    },
    {
      "bufferView": 2,
      "byteOffset": 503436,
      "componentType": 5126,
      "count": 213,
      "max": [
        1.0,
        1.0,
        1.835688294704596e-07
      ],
      "min": [
        -1.0,
        -1.0,
        -3.8451835848718474e-07
      ],
      "type": "VEC3"
    },
    {
      "bufferView": 1,
      "byteOffset": 166960,
      "componentType": 5126,
      "count": 213,
      "max": [
        0.36144310235977173,
        0.2990177571773529
      ],
      "min": [
        0.0,
        0.0
      ],
      "type": "VEC2"
    },
    {
      "bufferView": 0,
      "byteOffset": 235884,
      "componentType": 5125,
      "count": 555,
      "type": "SCALAR"
    },
    {
      "bufferView": 2,
      "byteOffset": 505992,
      "componentType": 5126,
      "count": 102,
      "max": [
        3.5783958435058594,
        2.722841501235962,
        3.391587495803833
      ],
      "min": [
        -4.149025917053223,
        -4.21377420425415,
        -2.1401318406333303e-07
      ],
      "type": "VEC3"
    },
    {
      "bufferView": 2,
      "byteOffset": 507216,
      "componentType": 5126,
      "count": 102,
      "max": [
        1.0,
        1.0,
        0.0
      ],
      "min": [
        -1.0,
        -1.0,
        -1.0
      ],
      "type": "VEC3"
    },
    {
      "bufferView": 3,
      "byteOffset": 333680,
      "componentType": 5126,
      "count": 102,
      "max": [
        1.0,
        1.0,
        0.9614158868789673,
        1.0
      ],
      "min": [
        -1.0,
        -0.03318057209253311,
        -0.9999937415122986,
        -1.0
      ],
      "type": "VEC4"
    },
    {
      "bufferView": 1,
      "byteOffset": 168664,
      "componentType": 5126,
      "count": 102,
      "max": [
        2.5704398155212402,
        1.8506441116333008
      ],
      "min": [
        -1.195792555809021,
        0.0
      ],
      "type": "VEC2"
    },
    {
      "bufferView": 1,
      "byteOffset": 169480,
      "componentType": 5126,
      "count": 102,
      "max": [
        2.5704398155212402,
        1.8506441116333008
      ],
      "min": [
        -1.195792555809021,
        0.0
      ],
      "type": "VEC2"
    },
    {
      "bufferView": 0,
      "byteOffset": 238104,
      "componentType": 5125,
      "count": 198,
      "type": "SCALAR"
    },
    {
      "bufferView": 2,
      "byteOffset": 508440,
      "componentType": 5126,
      "count": 220,
      "max": [
        3.956146478652954,
        1.8122142553329468,
        9.381475448608398
      ],
      "min": [
        -3.0767226219177246,
        -2.0425076484680176,
        2.49031925201416
      ],
      "type": "VEC3"
    },
    {
      "bufferView": 2,
      "byteOffset": 511080,
      "componentType": 5126,
      "count": 220,
      "max": [
        1.0,
        1.0,
        0.621103823184967
      ],
      "min": [
        -1.0,
        -1.0,
        -1.0
      ],
      "type": "VEC3"
    },
    {
      "bufferView": 3,
      "byteOffset": 335312,
      "componentType": 5126,
      "count": 220,
      "max": [
        1.0,
        1.0,
        1.0,
        1.0
      ],
      "min": [
        -1.0,
        -1.0,
        -1.0,
        -1.0
      ],
      "type": "VEC4"
    },
    {
      "bufferView": 1,
      "byteOffset": 170296,
      "componentType": 5126,
      "count": 220,
      "max": [
        3.9023499488830566,
        5.861876010894775
      ],
      "min": [
        -1.5888738632202148,
        -1.9764249324798584
      ],
      "type": "VEC2"
    },
    {
      "bufferView": 0,
      "byteOffset": 238896,
      "componentType": 5125,
      "count": 510,
      "type": "SCALAR"
    },
    {
      "bufferView": 2,
      "byteOffset": 513720,
      "componentType": 5126,
      "count": 164,
      "max": [
        2.9073939323425293,
        1.2170343399047852,
        11.237151145935059
      ],
      "min": [
        2.71514630317688,
        1.1264078617095947,
        9.381475448608398
      ],
      "type": "VEC3"
    },
    {
      "bufferView": 2,
      "byteOffset": 515688,
      "componentType": 5126,
      "count": 164,
      "max": [
        0.9998546838760376,
        0.9999677538871765,
        1.0
      ],
      "min": [
        -0.9998546838760376,
        -0.9999677538871765,
        -1.0
      ],
      "type": "VEC3"
    },
    {
      "bufferView": 3,
      "byteOffset": 338832,
      "componentType": 5126,
      "count": 164,
      "max": [
        1.0,
        1.0,
        0.6648454070091248,
        1.0
      ],
      "min": [
        0.0,
        -2.8146421300334623e-06,
        -0.6648486852645874,
        -1.0
      ],
      "type": "VEC4"
    },
    {
      "bufferView": 1,
      "byteOffset": 172056,
      "componentType": 5126,
      "count": 164,
      "max": [
        0.5517999529838562,
        1.0
      ],
      "min": [
        0.44820016622543335,
        0.0
      ],
      "type": "VEC2"
    },
    {
      "bufferView": 0,
      "byteOffset": 240936,
      "componentType": 5125,
      "count": 246,
      "type": "SCALAR"
    },
    {
      "bufferView": 2,
      "byteOffset": 517656,
      "componentType": 5126,
      "count": 118,
      "max": [
        3.7379026412963867,
        2.765376329421997,
        7.402338981628418
      ],
      "min": [
        -4.1570258140563965,
        -3.589914083480835,
        1.1863436698913574
      ],
      "type": "VEC3"
    },
    {
      "bufferView": 2,
      "byteOffset": 519072,
      "componentType": 5126,
      "count": 118,
      "max": [
        1.0,
        1.0,
        0.0005719326436519623
      ],
      "min": [
        -1.0,
        -1.0,
        -1.0
      ],
      "type": "VEC3"
    },
    {
      "bufferView": 3,
      "byteOffset": 341456,
      "componentType": 5126,
      "count": 118,
      "max": [
        1.0,
        1.0,
        6.132164003247453e-07,
        1.0
      ],
      "min": [
        -2.489863391019753e-07,
        -0.0018134668935090303,
        -6.132164571681642e-07,
        -1.0
      ],
      "type": "VEC4"
    },
    {
      "bufferView": 1,
      "byteOffset": 173368,
      "componentType": 5126,
      "count": 118,
      "max": [
        0.9808946847915649,
        0.8936702013015747
      ],
      "min": [
        0.0,
        0.10632988810539246
      ],
      "type": "VEC2"
    },
    {
      "bufferView": 0,
      "byteOffset": 241920,
      "componentType": 5125,
      "count": 198,
      "type": "SCALAR"
    },
    {
      "bufferView": 2,
      "byteOffset": 520488,
      "componentType": 5126,
      "count": 508,
      "max": [
        8.381200790405273,
        3.284105062484741,
        4.45143985748291
      ],
      "min": [
        -0.32663393020629883,
        -4.351528644561768,
        -4.255097389221191
      ],
      "type": "VEC3"
    },
    {
      "bufferView": 2,
      "byteOffset": 526584,
      "componentType": 5126,
      "count": 508,
      "max": [
        0.9613324403762817,
        0.9998500943183899,
        1.0
      ],
      "min": [
        -0.1322864145040512,
        -0.9944632649421692,
        -0.9999761581420898
      ],
      "type": "VEC3"
    },
    {
      "bufferView": 1,
      "byteOffset": 174312,
      "componentType": 5126,
      "count": 508,
      "max": [
        0.22656264901161194,
        1.0
      ],
      "min": [
        0.020681653171777725,
        0.5879654288291931
      ],
      "type": "VEC2"
    },
    {
      "bufferView": 1,
      "byteOffset": 178376,
      "componentType": 5126,
      "count": 508,
      "max": [
        0.22656264901161194,
        1.0
      ],
      "min": [
        0.020681653171777725,
        0.5879654288291931
      ],
      "type": "VEC2"
    },
    {
      "bufferView": 0,
      "byteOffset": 242712,
      "componentType": 5125,
      "count": 762,
      "type": "SCALAR"
    }
  ],
  "asset": {
    "extras": {
      "author": "Toni García Vilche (https://sketchfab.com/zul_gv)",
      "license": "CC-BY-4.0 (http://creativecommons.org/licenses/by/4.0/)",
      "source": "https://sketchfab.com/3d-models/medieval-house-anime-based-e02610d4e3d6412db7ffe92f7fbca569",
      "title": "Medieval House Anime Based"
    },
    "generator": "Sketchfab-15.24.0",
    "version": "2.0"
  },
  "bufferViews": [
    {
      "buffer": 0,
      "byteLength": 245760,
      "name": "floatBufferViews",
      "target": 34963
    },
    {
      "buffer": 0,
      "byteLength": 182440,
      "byteOffset": 245760,
      "byteStride": 8,
      "name": "floatBufferViews",
      "target": 34962
    },
    {
      "buffer": 0,
      "byteLength": 532680,
      "byteOffset": 428200,
      "byteStride": 12,
      "name": "floatBufferViews",
      "target": 34962
    },
    {
      "buffer": 0,
      "byteLength": 343344,
      "byteOffset": 960880,
      "byteStride": 16,
      "name": "floatBufferViews",
      "target": 34962
    }
  ],
  "buffers": [
    {
      "byteLength": 1304224,
      "uri": "scene.bin"
    }
  ],
  "extensionsUsed": [
    "KHR_materials_specular"
  ],
  "images": [
    {
      "uri": "textures/Stairs_baseColor.png"
    },
    {
      "uri": "textures/Stairs_metallicRoughness.png"
    },
    {
      "uri": "textures/Stairs_normal.png"
    },
    {
      "uri": "textures/Wood_baseColor.png"
    },
    {
      "uri": "textures/Wood_metallicRoughness.png"
    },
    {
      "uri": "textures/Wood_normal.png"
    },
    {
      "uri": "textures/Bricks_baseColor.png"
    },
    {
      "uri": "textures/Bricks_metallicRoughness.png"
    },
    {
      "uri": "textures/Bricks_normal.png"
    },
    {
      "uri": "textures/Roof_baseColor.png"
    },
    {
      "uri": "textures/Roof_metallicRoughness.png"
    },
    {
      "uri": "textures/Roof_normal.png"
    },
    {
      "uri": "textures/Walls_baseColor.png"
    },
    {
      "uri": "textures/Walls_metallicRoughness.png"
    },
    {
      "uri": "textures/Walls_normal.png"
    },
    {
      "uri": "textures/Plants_baseColor.png"
    },
    {
      "uri": "textures/Plants_emissive.png"
    }
  ],
  "materials": [
    {
      "doubleSided": true,
      "name": "Stairs",
      "normalTexture": {
        "index": 2
      },
      "pbrMetallicRoughness": {
        "baseColorTexture": {
          "index": 0
        },
        "metallicFactor": 0.0,
        "metallicRoughnessTexture": {
          "index": 1
        }
      }
    },
    {
      "doubleSided": true,
      "extensions": {
        "KHR_materials_specular": {
          "specularColorFactor": [
            1.0,
            1.0,
            1.0
          ],
          "specularFactor": 0.0
        }
      },
      "name": "Black",
      "pbrMetallicRoughness": {
        "baseColorFactor": [
          0.0,
          0.0,
          0.0,
          1.0
        ],
        "metallicFactor": 0.0
      }
    },
    {
      "doubleSided": true,
      "name": "Wood",
      "normalTexture": {
        "index": 5
      },
      "pbrMetallicRoughness": {
        "baseColorTexture": {
          "index": 3
        },
        "metallicFactor": 0.0,
        "metallicRoughnessTexture": {
          "index": 4
        }
      }
    },
    {
      "doubleSided": true,
      "name": "Bricks",
      "normalTexture": {
        "index": 8
      },
      "pbrMetallicRoughness": {
        "baseColorTexture": {
          "index": 6
        },
        "metallicFactor": 0.0,
        "metallicRoughnessTexture": {
          "index": 7
        },
        "roughnessFactor": 0.6750496763418707
      }
    },
    {
      "doubleSided": true,
      "name": "Roof",
      "normalTexture": {
        "index": 11
      },
      "pbrMetallicRoughness": {
        "baseColorTexture": {
          "index": 9
        },
        "metallicFactor": 0.0,
        "metallicRoughnessTexture": {
          "index": 10
        },
        "roughnessFactor": 0.7
      }
    },
    {
      "doubleSided": true,
      "name": "Walls",
      "normalTexture": {
        "index": 14,
        "scale": 0.18742914264119662
      },
      "pbrMetallicRoughness": {
        "baseColorTexture": {
          "index": 12
        },
        "metallicFactor": 0.0,
        "metallicRoughnessTexture": {
          "index": 13
        }
      }
    },
    {
      "alphaCutoff": 0.07,
      "alphaMode": "MASK",
      "doubleSided": true,
      "emissiveFactor": [
        0.15,
        0.15,
        0.15
      ],
      "emissiveTexture": {
        "index": 16
      },
      "name": "Plants",
      "pbrMetallicRoughness": {
        "baseColorTexture": {
          "index": 15
        },
        "metallicFactor": 0.0
      }
    }
  ],
  "meshes": [
    {
      "name": "Stone_Stairs_0",
      "primitives": [
        {
          "attributes": {
            "NORMAL": 1,
            "POSITION": 0,
            "TANGENT": 2,
            "TEXCOORD_0": 3
          },
          "indices": 4,
          "material": 0,
          "mode": 4
        }
      ]
    },
    {
      "name": "Stone_Black_0",
      "primitives": [
        {
          "attributes": {
            "NORMAL": 6,
            "POSITION": 5,
            "TEXCOORD_0": 7
          },
          "indices": 8,
          "material": 1,
          "mode": 4
        }
      ]
    },
    {
      "name": "Wood_Wood_0",
      "primitives": [
        {
          "attributes": {
            "NORMAL": 10,
            "POSITION": 9,
            "TANGENT": 11,
            "TEXCOORD_0": 12
          },
          "indices": 13,
          "material": 2,
          "mode": 4
        }
      ]
    },
    {
      "name": "Wood_Black_0",
      "primitives": [
        {
          "attributes": {
            "NORMAL": 15,
            "POSITION": 14,
            "TEXCOORD_0": 16
          },
          "indices": 17,
          "material": 1,
          "mode": 4
        }
      ]
    },
    {
      "name": "StoneBricks_Bricks_0",
      "primitives": [
        {
          "attributes": {
            "NORMAL": 19,
            "POSITION": 18,
            "TANGENT": 20,
            "TEXCOORD_0": 21,
            "TEXCOORD_1": 22
          },
          "indices": 23,
          "material": 3,
          "mode": 4
        }
      ]
    },
    {
      "name": "Roof_Roof_0",
      "primitives": [
        {
          "attributes": {
            "NORMAL": 25,
            "POSITION": 24,
            "TANGENT": 26,
            "TEXCOORD_0": 27
          },
          "indices": 28,
          "material": 4,
          "mode": 4
        }
      ]
    },
    {
      "name": "Roof_Wood_0",
      "primitives": [
        {
          "attributes": {
            "NORMAL": 30,
            "POSITION": 29,
            "TANGENT": 31,
            "TEXCOORD_0": 32
          },
          "indices": 33,
          "material": 2,
          "mode": 4
        }
      ]
    },
    {
      "name": "Walls_Walls_0",
      "primitives": [
        {
          "attributes": {
            "NORMAL": 35,
            "POSITION": 34,
            "TANGENT": 36,
            "TEXCOORD_0": 37
          },
          "indices": 38,
          "material": 5,
          "mode": 4
        }
      ]
    },
    {
      "name": "Plants_Plants_0",
      "primitives": [
        {
          "attributes": {
            "NORMAL": 40,
            "POSITION": 39,
            "TEXCOORD_0": 41,
            "TEXCOORD_1": 42
          },
          "indices": 43,
          "material": 6,
          "mode": 4
        }
      ]
    }
  ],
  "nodes": [
    {
      "children": [
        1
      ],
      "matrix": [
        1.0,
        0.0,
        0.0,
        0.0,
        0.0,
        2.220446049250313e-16,
        -1.0,
        0.0,
        0.0,
        1.0,
        2.220446049250313e-16,
        0.0,
        0.0,
        0.0,
        0.0,
        1.0
      ],
      "name": "Sketchfab_model"
    },
    {
      "children": [
        2
      ],
      "matrix": [
        0.009999999776482582,
        0.0,
        0.0,
        0.0,
        0.0,
        0.0,
        0.009999999776482582,
        0.0,
        0.0,
        -0.009999999776482582,
        0.0,
        0.0,
        0.0,
        0.0,
        0.0,
        1.0
      ],
      "name": "MedievalHouse.fbx"
    },
    {
      "children": [
        3,
        6,
        9,
        11,
        14,
        16
      ],
      "name": "RootNode"
    },
    {
      "children": [
        4,
        5
      ],
      "matrix": [
        100.0,
        0.0,
        0.0,
        0.0,
        0.0,
        -1.629206793918314e-05,
        -99.99999999999868,
        0.0,
        0.0,
        99.99999999999868,
        -1.629206793918314e-05,
        0.0,
        0.0,
        0.0,
        0.0,
        1.0
      ],
      "name": "Stone"
    },
    {
      "mesh": 0,
      "name": "Stone_Stairs_0"
    },
    {
      "mesh": 1,
      "name": "Stone_Black_0"
    },
    {
      "children": [
        7,
        8
      ],
      "matrix": [
        100.0,
        0.0,
        0.0,
        0.0,
        0.0,
        -1.629206793918314e-05,
        -99.99999999999868,
        0.0,
        0.0,
        99.99999999999868,
        -1.629206793918314e-05,
        0.0,
        0.0,
        0.0,
        0.0,
        1.0
      ],
      "name": "Wood"
    },
    {
      "mesh": 2,
      "name": "Wood_Wood_0"
    },
    {
      "mesh": 3,
      "name": "Wood_Black_0"
    },
    {
      "children": [
        10
      ],
      "matrix": [
        100.0,
        0.0,
        0.0,
        0.0,
        0.0,
        -1.629206793918314e-05,
        -99.99999999999868,
        0.0,
        0.0,
        99.99999999999868,
        -1.629206793918314e-05,
        0.0,
        0.0,
        0.0,
        0.0,
        1.0
      ],
      "name": "StoneBricks"
    },
    {
      "mesh": 4,
      "name": "StoneBricks_Bricks_0"
    },
    {
      "children": [
        12,
        13
      ],
      "matrix": [
        4.371139006309477e-06,
        1.1102230246251565e-14,
        99.99999999999991,
        0.0,
        224.32064819335895,
        -9.805367352386186e-06,
        -9.805367364838484e-06,
        0.0,
        4.371139011860592e-06,
        99.99999999999991,
        -1.9984014443252818e-13,
        0.0,
        0.0,
        -4.76837158203125e-05,
        0.0,
        1.0
      ],
      "name": "Roof"
    },
    {
      "mesh": 5,
      "name": "Roof_Roof_0"
    },
    {
      "mesh": 6,
      "name": "Roof_Wood_0"
    },
    {
      "children": [
        15
      ],
      "matrix": [
        100.0,
        0.0,
        0.0,
        0.0,
        0.0,
        -1.629206793918314e-05,
        -99.99999999999868,
        0.0,
        0.0,
        99.99999999999868,
        -1.629206793918314e-05,
        0.0,
        0.0,
        0.0,
        0.0,
        1.0
      ],
      "name": "Walls"
    },
    {
      "mesh": 7,
      "name": "Walls_Walls_0"
    },
    {
      "children": [
        17
      ],
      "matrix": [
        7.549789970973109e-06,
        99.99999999999955,
        5.960465176979568e-06,
        0.0,
        1.6292068416579042e-05,
        5.960463944632011e-06,
        -99.9999999999985,
        0.0,
        -99.9999999999984,
        7.549790942418255e-06,
        -1.6292067961387602e-05,
        0.0,
        2.9802322387695313e-06,
        0.0,
        0.0,
        1.0
      ],
      "name": "Plants"
    },
    {
      "mesh": 8,
      "name": "Plants_Plants_0"
    }
  ],
  "samplers": [
    {
      "magFilter": 9729,
      "minFilter": 9987,
      "wrapS": 10497,
      "wrapT": 10497
    }
  ],
  "scene": 0,
  "scenes": [
    {
      "name": "Sketchfab_Scene",
      "nodes": [
        0
      ]
    }
  ],
  "textures": [
    {
      "sampler": 0,
      "source": 0
    },
    {
      "sampler": 0,
      "source": 1
    },
    {
      "sampler": 0,
      "source": 2
    },
    {
      "sampler": 0,
      "source": 3
    },
    {
      "sampler": 0,
      "source": 4
    },
    {
      "sampler": 0,
      "source": 5
    },
    {
      "sampler": 0,
      "source": 6
    },
    {
      "sampler": 0,
      "source": 7
    },
    {
      "sampler": 0,
      "source": 8
    },
    {
      "sampler": 0,
      "source": 9
    },
    {
      "sampler": 0,
      "source": 10
    },
    {
      "sampler": 0,
      "source": 11
    },
    {
      "sampler": 0,
      "source": 12
    },
    {
      "sampler": 0,
      "source": 13
    },
    {
      "sampler": 0,
      "source": 14
    },
    {
      "sampler": 0,
      "source": 15
    },
    {
      "sampler": 0,
      "source": 16
    }
  ]
}
