{
  "accessors": [
    {
      "bufferView": 2,
      "componentType": 5126,
      "count": 32835,
      "max": [
        5.689769268035889,
        4.807814598083496,
        4.116275310516357
      ],
      "min": [
        -5.715236186981201,
        -0.14099931716918945,
        -3.4729092121124268
      ],
      "type": "VEC3"
    },
    {
      "bufferView": 2,
      "byteOffset": 394020,
      "componentType": 5126,
      "count": 32835,
      "max": [
        1.0,
        1.0,
        1.0
      ],
      "min": [
        -1.0,
        -1.0,
        -1.0
      ],
      "type": "VEC3"
    },
    {
      "bufferView": 1,
      "componentType": 5126,
      "count": 32835,
      "max": [
        4.9438676834106445,
        4.492570400238037
      ],
      "min": [
        -3.415280342102051,
        -3.492569923400879
      ],
      "type": "VEC2"
    },
    {
      "bufferView": 0,
      "componentType": 5125,
      "count": 39732,
      "type": "SCALAR"
    },
    {
      "bufferView": 2,
      "byteOffset": 788040,
      "componentType": 5126,
      "count": 407,
      "max": [
        5.440794467926025,
        1.8442327976226807,
        2.9802098274230957
      ],
      "min": [
        -5.119787216186523,
        0.10779602825641632,
        -3.27506422996521
      ],
      "type": "VEC3"
    },
    {
      "bufferView": 2,
      "byteOffset": 792924,
      "componentType": 5126,
      "count": 407,
      "max": [
        1.0,
        1.0,
        1.0
      ],
      "min": [
        -1.0,
        -1.0,
        -1.0
      ],
      "type": "VEC3"
    },
    {
      "bufferView": 1,
      "byteOffset": 262680,
      "componentType": 5126,
      "count": 407,
      "max": [
        0.0,
        0.0
      ],
      "min": [
        0.0,
        0.0
      ],
      "type": "VEC2"
    },
    {
      "bufferView": 0,
      "byteOffset": 158928,
      "componentType": 5125,
      "count": 504,
      "type": "SCALAR"
    },
    {
      "bufferView": 2,
      "byteOffset": 797808,
      "componentType": 5126,
      "count": 780,
      "max": [
        5.413891792297363,
        4.202029228210449,
        2.989098072052002
      ],
      "min": [
        -4.977459907531738,
        0.04056835174560547,
        -3.0318241119384766
      ],
      "type": "VEC3"
    },
    {
      "bufferView": 2,
      "byteOffset": 807168,
      "componentType": 5126,
      "count": 780,
      "max": [
        1.0,
        1.0,
        1.0
      ],
      "min": [
        -1.0,
        -1.0,
        -1.0
      ],
      "type": "VEC3"
    },
    {
      "bufferView": 1,
      "byteOffset": 265936,
      "componentType": 5126,
      "count": 780,
      "max": [
        1.0,
        1.0
      ],
      "min": [
        0.0,
        0.0
      ],
      "type": "VEC2"
    },
    {
      "bufferView": 0,
      "byteOffset": 160944,
      "componentType": 5125,
      "count": 1224,
      "type": "SCALAR"
    },
    {
      "bufferView": 2,
      "byteOffset": 816528,
      "componentType": 5126,
      "count": 65532,
      "max": [
        5.058588027954102,
        2.576920509338379,
        -3.1416280269622803
      ],
      "min": [
        -1.8812872171401978,
        2.4622533321380615,
        -3.1611487865448
      ],
      "type": "VEC3"
    },
    {
      "bufferView": 2,
      "byteOffset": 1602912,
      "componentType": 5126,
      "count": 65532,
      "max": [
        1.0,
        1.0,
        1.0
      ],
      "min": [
        -1.0,
        -1.0,
        -1.0
      ],
      "type": "VEC3"
    },
    {
      "bufferView": 1,
      "byteOffset": 272176,
      "componentType": 5126,
      "count": 65532,
      "max": [
        0.0,
        0.0
      ],
      "min": [
        0.0,
        0.0
      ],
      "type": "VEC2"
    },
    {
      "bufferView": 0,
      "byteOffset": 165840,
      "componentType": 5125,
      "count": 237633,
      "type": "SCALAR"
    },
    {
      "bufferView": 2,
      "byteOffset": 2389296,
      "componentType": 5126,
      "count": 65532,
      "max": [
        5.058588027954102,
        2.576920509338379,
        3.161149263381958
      ],
      "min": [
        -5.095263481140137,
        2.4622533321380615,
        -3.1611487865448
      ],
      "type": "VEC3"
    },
    {
      "bufferView": 2,
      "byteOffset": 3175680,
      "componentType": 5126,
      "count": 65532,
      "max": [
        1.0,
        1.0,
        1.0
      ],
      "min": [
        -1.0,
        -1.0,
        -1.0
      ],
      "type": "VEC3"
    },
    {
      "bufferView": 1,
      "byteOffset": 796432,
      "componentType": 5126,
      "count": 65532,
      "max": [
        0.0,
        0.0
      ],
      "min": [
        0.0,
        0.0
      ],
      "type": "VEC2"
    },
    {
      "bufferView": 0,
      "byteOffset": 1116372,
      "componentType": 5125,
      "count": 236085,
      "type": "SCALAR"
    },
    {
      "bufferView": 2,
      "byteOffset": 3962064,
      "componentType": 5126,
      "count": 65534,
      "max": [
        4.883504867553711,
        2.576920509338379,
        3.161149263381958
      ],
      "min": [
        -5.095263481140137,
        2.4622533321380615,
        -3.159452438354492
      ],
      "type": "VEC3"
    },
    {
      "bufferView": 2,
      "byteOffset": 4748472,
      "componentType": 5126,
      "count": 65534,
      "max": [
        1.0,
        1.0,
        1.0
      ],
      "min": [
        -1.0,
        -1.0,
        -1.0
      ],
      "type": "VEC3"
    },
    {
      "bufferView": 1,
      "byteOffset": 1320688,
      "componentType": 5126,
      "count": 65534,
      "max": [
        0.0,
        0.0
      ],
      "min": [
        0.0,
        0.0
      ],
      "type": "VEC2"
    },
    {
      "bufferView": 0,
      "byteOffset": 2060712,
      "componentType": 5125,
      "count": 234864,
      "type": "SCALAR"
    },
    {
      "bufferView": 2,
      "byteOffset": 5534880,
      "componentType": 5126,
      "count": 870,
      "max": [
        4.115887641906738,
        2.557821273803711,
        -3.1580891609191895
      ],
      "min": [
        -3.8389077186584473,
        2.4944424629211426,
        -3.1589832305908203
      ],
      "type": "VEC3"
    },
    {
      "bufferView": 2,
      "byteOffset": 5545320,
      "componentType": 5126,
      "count": 870,
      "max": [
        0.8365437388420105,
        0.7954875826835632,
        -0.3322994112968445
      ],
      "min": [
        -0.6953120231628418,
        -0.43567249178886414,
        -1.0
      ],
      "type": "VEC3"
    },
    {
      "bufferView": 1,
      "byteOffset": 1844960,
      "componentType": 5126,
      "count": 870,
      "max": [
        0.0,
        0.0
      ],
      "min": [
        0.0,
        0.0
      ],
      "type": "VEC2"
    },
    {
      "bufferView": 0,
      "byteOffset": 3000168,
      "componentType": 5125,
      "count": 1374,
      "type": "SCALAR"
    },
    {
      "bufferView": 2,
      "byteOffset": 5555760,
      "componentType": 5126,
      "count": 1108,
      "max": [
        4.905829906463623,
        0.6340509653091431,
        4.027514457702637
      ],
      "min": [
        -4.920114040374756,
        -0.10993063449859619,
        -3.4694855213165283
      ],
      "type": "VEC3"
    },
    {
      "bufferView": 2,
      "byteOffset": 5569056,
      "componentType": 5126,
      "count": 1108,
      "max": [
        1.0,
        1.0,
        1.0
      ],
      "min": [
        -1.0,
        -1.0,
        -1.0
      ],
      "type": "VEC3"
    },
    {
      "bufferView": 1,
      "byteOffset": 1851920,
      "componentType": 5126,
      "count": 1108,
      "max": [
        1.0,
        1.0
      ],
      "min": [
        0.0,
        0.0
      ],
      "type": "VEC2"
    },
    {
      "bufferView": 0,
      "byteOffset": 3005664,
      "componentType": 5125,
      "count": 1464,
      "type": "SCALAR"
    },
    {
      "bufferView": 2,
      "byteOffset": 5582352,
      "componentType": 5126,
      "count": 24,
      "max": [
        2.8885703086853027,
        0.04939601570367813,
        2.9332869052886963
      ],
      "min": [
        0.7757359743118286,
        0.025687485933303833,
        2.0002365112304688
      ],
      "type": "VEC3"
    },
    {
      "bufferView": 2,
      "byteOffset": 5582640,
      "componentType": 5126,
      "count": 24,
      "max": [
        1.0,
        1.0,
        1.0
      ],
      "min": [
        -1.0,
        -1.0,
        -1.0
      ],
      "type": "VEC3"
    },
    {
      "bufferView": 1,
      "byteOffset": 1860784,
      "componentType": 5126,
      "count": 24,
      "max": [
        0.875,
        1.0
      ],
      "min": [
        0.125,
        0.0
      ],
      "type": "VEC2"
    },
    {
      "bufferView": 0,
      "byteOffset": 3011520,
      "componentType": 5125,
      "count": 36,
      "type": "SCALAR"
    },
    {
      "bufferView": 2,
      "byteOffset": 5582928,
      "componentType": 5126,
      "count": 65532,
      "max": [
        5.083794593811035,
        4.274691581726074,
        3.155503988265991
      ],
      "min": [
        -5.0799055099487305,
        2.5209178924560547,
        -3.155505657196045
      ],
      "type": "VEC3"
    },
    {
      "bufferView": 2,
      "byteOffset": 6369312,
      "componentType": 5126,
      "count": 65532,
      "max": [
        1.0,
        0.9711512923240662,
        0.9999340176582336
      ],
      "min": [
        -1.0,
        -0.9711863398551941,
        -0.999921441078186
      ],
      "type": "VEC3"
    },
    {
      "bufferView": 1,
      "byteOffset": 1860976,
      "componentType": 5126,
      "count": 65532,
      "max": [
        0.538097083568573,
        0.5474399328231812
      ],
      "min": [
        0.43729501962661743,
        0.4471801519393921
      ],
      "type": "VEC2"
    },
    {
      "bufferView": 0,
      "byteOffset": 3011664,
      "componentType": 5125,
      "count": 140544,
      "type": "SCALAR"
    },
    {
      "bufferView": 2,
      "byteOffset": 7155696,
      "componentType": 5126,
      "count": 65232,
      "max": [
        5.083794593811035,
        4.274691581726074,
        3.155505657196045
      ],
      "min": [
        -5.0799055099487305,
        2.5209178924560547,
        0.14503753185272217
      ],
      "type": "VEC3"
    },
    {
      "bufferView": 2,
      "byteOffset": 7938480,
      "componentType": 5126,
      "count": 65232,
      "max": [
        1.0,
        0.9711512923240662,
        0.9999215006828308
      ],
      "min": [
        -1.0,
        -0.9711872935295105,
        -0.9999340176582336
      ],
      "type": "VEC3"
    },
    {
      "bufferView": 1,
      "byteOffset": 2385232,
      "componentType": 5126,
      "count": 65232,
      "max": [
        0.538097083568573,
        0.5474399328231812
      ],
      "min": [
        0.43729501962661743,
        0.4471801519393921
      ],
      "type": "VEC2"
    },
    {
      "bufferView": 0,
      "byteOffset": 3573840,
      "componentType": 5125,
      "count": 139896,
      "type": "SCALAR"
    }
  ],
  "asset": {
    "extras": {
      "author": "tris.blend (https://sketchfab.com/tris09)",
      "license": "CC-BY-4.0 (http://creativecommons.org/licenses/by/4.0/)",
      "source": "https://sketchfab.com/3d-models/japanese-village-house-2f1124bd921540d7816391f79eb436ea",
      "title": "Japanese Village House"
    },
    "generator": "Sketchfab-12.79.0",
    "version": "2.0"
  },
  "bufferViews": [
    {
      "buffer": 0,
      "byteLength": 4133424,
      "name": "floatBufferViews",
      "target": 34963
    },
    {
      "buffer": 0,
      "byteLength": 2907088,
      "byteOffset": 4133424,
      "byteStride": 8,
      "name": "floatBufferViews",
      "target": 34962
    },
    {
      "buffer": 0,
      "byteLength": 8721264,
      "byteOffset": 7040512,
      "byteStride": 12,
      "name": "floatBufferViews",
      "target": 34962
    }
  ],
  "buffers": [
    {
      "byteLength": 15761776,
      "uri": "scene.bin"
    }
  ],
  "materials": [
    {
      "doubleSided": true,
      "name": "wood",
      "pbrMetallicRoughness": {
        "baseColorFactor": [
          0.228571,
          0.169325,
          0.085671,
          1.0
        ],
        "metallicFactor": 0.0,
        "roughnessFactor": 0.5
      }
    },
    {
      "doubleSided": true,
      "name": "fassade_sheets",
      "pbrMetallicRoughness": {
        "baseColorFactor": [
          0.8,
          0.7662910000000001,
          0.670201,
          1.0
        ],
        "metallicFactor": 0.0,
        "roughnessFactor": 0.5
      }
    },
    {
      "doubleSided": true,
      "name": "fassade",
      "pbrMetallicRoughness": {
        "baseColorFactor": [
          0.8,
          0.795487,
          0.546841,
          1.0
        ],
        "metallicFactor": 0.0,
        "roughnessFactor": 0.5
      }
    },
    {
      "doubleSided": true,
      "name": "Material",
      "pbrMetallicRoughness": {
        "baseColorFactor": [
          0.098847,
          0.107131,
          0.100882,
          1.0
        ],
        "metallicFactor": 0.0,
        "roughnessFactor": 0.5
      }
    },
    {
      "doubleSided": true,
      "name": "grey",
      "pbrMetallicRoughness": {
        "baseColorFactor": [
          0.278571,
          0.278571,
          0.278571,
          1.0
        ],
        "metallicFactor": 0.0,
        "roughnessFactor": 0.5
      }
    },
    {
      "doubleSided": true,
      "name": "wood_planks_dirt_001",
      "pbrMetallicRoughness": {
        "baseColorFactor": [
          0.392857,
          0.274515,
          0.122431,
          1.0
        ],
        "metallicFactor": 0.0,
        "roughnessFactor": 0.5
      }
    },
    {
      "doubleSided": true,
      "name": "ceramic_roof_001",
      "pbrMetallicRoughness": {
        "baseColorFactor": [
          0.264286,
          0.198346,
          0.149269,
          1.0
        ],
        "metallicFactor": 0.0,
        "roughnessFactor": 0.5
      }
    }
  ],
  "meshes": [
    {
      "name": "Object_0",
      "primitives": [
        {
          "attributes": {
            "NORMAL": 1,
            "POSITION": 0,
            "TEXCOORD_0": 2
          },
          "indices": 3,
          "material": 0,
          "mode": 4
        }
      ]
    },
    {
      "name": "Object_1",
      "primitives": [
        {
          "attributes": {
            "NORMAL": 5,
            "POSITION": 4,
            "TEXCOORD_0": 6
          },
          "indices": 7,
          "material": 1,
          "mode": 4
        }
      ]
    },
    {
      "name": "Object_2",
      "primitives": [
        {
          "attributes": {
            "NORMAL": 9,
            "POSITION": 8,
            "TEXCOORD_0": 10
          },
          "indices": 11,
          "material": 2,
          "mode": 4
        }
      ]
    },
    {
      "name": "Object_3",
      "primitives": [
        {
          "attributes": {
            "NORMAL": 13,
            "POSITION": 12,
            "TEXCOORD_0": 14
          },
          "indices": 15,
          "material": 3,
          "mode": 4
        }
      ]
    },
    {
      "name": "Object_4",
      "primitives": [
        {
          "attributes": {
            "NORMAL": 17,
            "POSITION": 16,
            "TEXCOORD_0": 18
          },
          "indices": 19,
          "material": 3,
          "mode": 4
        }
      ]
    },
    {
      "name": "Object_5",
      "primitives": [
        {
          "attributes": {
            "NORMAL": 21,
            "POSITION": 20,
            "TEXCOORD_0": 22
          },
          "indices": 23,
          "material": 3,
          "mode": 4
        }
      ]
    },
    {
      "name": "Object_6",
      "primitives": [
        {
          "attributes": {
            "NORMAL": 25,
            "POSITION": 24,
            "TEXCOORD_0": 26
          },
          "indices": 27,
          "material": 3,
          "mode": 4
        }
      ]
    },
    {
      "name": "Object_7",
      "primitives": [
        {
          "attributes": {
            "NORMAL": 29,
            "POSITION": 28,
            "TEXCOORD_0": 30
          },
          "indices": 31,
          "material": 4,
          "mode": 4
        }
      ]
    },
    {
      "name": "Object_8",
      "primitives": [
        {
          "attributes": {
            "NORMAL": 33,
            "POSITION": 32,
            "TEXCOORD_0": 34
          },
          "indices": 35,
          "material": 5,
          "mode": 4
        }
      ]
    },
    {
      "name": "Object_9",
      "primitives": [
        {
          "attributes": {
            "NORMAL": 37,
            "POSITION": 36,
            "TEXCOORD_0": 38
          },
          "indices": 39,
          "material": 6,
          "mode": 4
        }
      ]
    },
    {
      "name": "Object_10",
      "primitives": [
        {
          "attributes": {
            "NORMAL": 41,
            "POSITION": 40,
            "TEXCOORD_0": 42
          },
          "indices": 43,
          "material": 6,
          "mode": 4
        }
      ]
    }
  ],
  "nodes": [
    {
      "children": [
        1
      ],
      "matrix": [
        1.0,
        0.0,
        0.0,
        0.0,
        0.0,
        2.220446049250313e-16,
        -1.0,
        0.0,
        0.0,
        1.0,
        2.220446049250313e-16,
        0.0,
        0.0,
        0.0,
        0.0,
        1.0
      ],
      "name": "Sketchfab_model"
    },
    {
      "children": [
        2
      ],
      "name": "root"
    },
    {
      "children": [
        3
      ],
      "matrix": [
        1.0,
        0.0,
        0.0,
        0.0,
        0.0,
        2.220446049250313e-16,
        1.0,
        0.0,
        0.0,
        -1.0,
        2.220446049250313e-16,
        0.0,
        0.0,
        0.0,
        0.0,
        1.0
      ],
      "name": "GLTF_SceneRootNode"
    },
    {
      "children": [
        4,
        5,
        6,
        7,
        8,
        9,
        10,
        11,
        12,
        13,
        14
      ],
      "name": "JapaneseHouse_0"
    },
    {
      "mesh": 0,
      "name": "Object_4"
    },
    {
      "mesh": 1,
      "name": "Object_5"
    },
    {
      "mesh": 2,
      "name": "Object_6"
    },
    {
      "mesh": 3,
      "name": "Object_7"
    },
    {
      "mesh": 4,
      "name": "Object_8"
    },
    {
      "mesh": 5,
      "name": "Object_9"
    },
    {
      "mesh": 6,
      "name": "Object_10"
    },
    {
      "mesh": 7,
      "name": "Object_11"
    },
    {
      "mesh": 8,
      "name": "Object_12"
    },
    {
      "mesh": 9,
      "name": "Object_13"
    },
    {
      "mesh": 10,
      "name": "Object_14"
    }
  ],
  "scene": 0,
  "scenes": [
    {
      "name": "Sketchfab_Scene",
      "nodes": [
        0
      ]
    }
  ]
}
