{
  "accessors": [
    {
      "bufferView": 2,
      "componentType": 5126,
      "count": 1655,
      "max": [
        79.2548828125,
        103.73153686523438,
        77.5257568359375
      ],
      "min": [
        -83.107666015625,
        -2.288818359375e-05,
        -82.05108642578125
      ],
      "type": "VEC3"
    },
    {
      "bufferView": 2,
      "byteOffset": 19860,
      "componentType": 5126,
      "count": 1655,
      "max": [
        0.9998239874839783,
        1.0,
        0.9990790486335754
      ],
      "min": [
        -0.999824047088623,
        -1.0,
        -0.9948931336402893
      ],
      "type": "VEC3"
    },
    {
      "bufferView": 1,
      "componentType": 5126,
      "count": 1655,
      "max": [
        0.9898059964179993,
        0.9953736662864685
      ],
      "min": [
        0.0063629150390625,
        0.02445359155535698
      ],
      "type": "VEC2"
    },
    {
      "bufferView": 1,
      "byteOffset": 13240,
      "componentType": 5126,
      "count": 1655,
      "max": [
        1.5020906925201416,
        0.9823864102363586
      ],
      "min": [
        -0.6055504083633423,
        -0.008902084082365036
      ],
      "type": "VEC2"
    },
    {
      "bufferView": 0,
      "componentType": 5125,
      "count": 4611,
      "type": "SCALAR"
    },
    {
      "bufferView": 2,
      "byteOffset": 39720,
      "componentType": 5126,
      "count": 108,
      "max": [
        2.3590087890625,
        45.090789794921875,
        -7.414459228515625
      ],
      "min": [
        -2.35894775390625,
        41.179664611816406,
        -12.132476806640625
      ],
      "type": "VEC3"
    },
    {
      "bufferView": 2,
      "byteOffset": 41016,
      "componentType": 5126,
      "count": 108,
      "max": [
        0.9900568127632141,
        0.20895972847938538,
        0.9900551438331604
      ],
      "min": [
        -0.9900555610656738,
        -0.2335609793663025,
        -0.9900544285774231
      ],
      "type": "VEC3"
    },
    {
      "bufferView": 1,
      "byteOffset": 26480,
      "componentType": 5126,
      "count": 108,
      "max": [
        0.06558150053024292,
        0.30790358781814575
      ],
      "min": [
        0.033977508544921875,
        0.2883380949497223
      ],
      "type": "VEC2"
    },
    {
      "bufferView": 1,
      "byteOffset": 27344,
      "componentType": 5126,
      "count": 108,
      "max": [
        0.2661503553390503,
        0.4966495633125305
      ],
      "min": [
        0.24741220474243164,
        0.4850490689277649
      ],
      "type": "VEC2"
    },
    {
      "bufferView": 0,
      "byteOffset": 18444,
      "componentType": 5125,
      "count": 384,
      "type": "SCALAR"
    },
    {
      "bufferView": 2,
      "byteOffset": 42312,
      "componentType": 5126,
      "count": 108,
      "max": [
        3.0443115234375,
        45.51540756225586,
        -6.72918701171875
      ],
      "min": [
        -3.0443115234375,
        41.196292877197266,
        -12.817778587341309
      ],
      "type": "VEC3"
    },
    {
      "bufferView": 2,
      "byteOffset": 43608,
      "componentType": 5126,
      "count": 108,
      "max": [
        0.9964049458503723,
        0.2581535279750824,
        0.9964060187339783
      ],
      "min": [
        -0.9964076280593872,
        -0.2758433222770691,
        -0.996406614780426
      ],
      "type": "VEC3"
    },
    {
      "bufferView": 1,
      "byteOffset": 28208,
      "componentType": 5126,
      "count": 108,
      "max": [
        0.06854325532913208,
        0.37375009059906006
      ],
      "min": [
        0.030944526195526123,
        0.3518862724304199
      ],
      "type": "VEC2"
    },
    {
      "bufferView": 1,
      "byteOffset": 29072,
      "componentType": 5126,
      "count": 108,
      "max": [
        0.32255494594573975,
        0.4973546862602234
      ],
      "min": [
        0.300262451171875,
        0.4843915104866028
      ],
      "type": "VEC2"
    },
    {
      "bufferView": 0,
      "byteOffset": 19980,
      "componentType": 5125,
      "count": 384,
      "type": "SCALAR"
    },
    {
      "bufferView": 2,
      "byteOffset": 44904,
      "componentType": 5126,
      "count": 12,
      "max": [
        57.647674560546875,
        41.54225158691406,
        57.64771270751953
      ],
      "min": [
        -57.647743225097656,
        41.54225158691406,
        -57.647743225097656
      ],
      "type": "VEC3"
    },
    {
      "bufferView": 2,
      "byteOffset": 45048,
      "componentType": 5126,
      "count": 12,
      "max": [
        0.0,
        1.0,
        0.0
      ],
      "min": [
        0.0,
        1.0,
        0.0
      ],
      "type": "VEC3"
    },
    {
      "bufferView": 1,
      "byteOffset": 29936,
      "componentType": 5126,
      "count": 12,
      "max": [
        0.598097562789917,
        0.844257116317749
      ],
      "min": [
        0.0614665150642395,
        0.3076260983943939
      ],
      "type": "VEC2"
    },
    {
      "bufferView": 1,
      "byteOffset": 30032,
      "componentType": 5126,
      "count": 12,
      "max": [
        0.49191612005233765,
        0.5643993616104126
      ],
      "min": [
        0.17195646464824677,
        0.2444397211074829
      ],
      "type": "VEC2"
    },
    {
      "bufferView": 0,
      "byteOffset": 21516,
      "componentType": 5125,
      "count": 42,
      "type": "SCALAR"
    },
    {
      "bufferView": 2,
      "byteOffset": 45192,
      "componentType": 5126,
      "count": 168,
      "max": [
        1.38348388671875,
        39.52317428588867,
        39.52320861816406
      ],
      "min": [
        -1.38348388671875,
        -39.52317428588867,
        -39.52317810058594
      ],
      "type": "VEC3"
    },
    {
      "bufferView": 2,
      "byteOffset": 47208,
      "componentType": 5126,
      "count": 168,
      "max": [
        3.5284101613797247e-06,
        1.0,
        1.0
      ],
      "min": [
        -2.7203018362342846e-06,
        -1.0,
        -1.0
      ],
      "type": "VEC3"
    },
    {
      "bufferView": 1,
      "byteOffset": 30128,
      "componentType": 5126,
      "count": 168,
      "max": [
        0.9902600646018982,
        0.274260014295578
      ],
      "min": [
        0.3128432035446167,
        0.2584371864795685
      ],
      "type": "VEC2"
    },
    {
      "bufferView": 1,
      "byteOffset": 31472,
      "componentType": 5126,
      "count": 168,
      "max": [
        0.06222136691212654,
        1.947328805923462
      ],
      "min": [
        0.031599193811416626,
        0.03422063589096069
      ],
      "type": "VEC2"
    },
    {
      "bufferView": 0,
      "byteOffset": 21684,
      "componentType": 5125,
      "count": 480,
      "type": "SCALAR"
    },
    {
      "bufferView": 3,
      "componentType": 5126,
      "count": 173,
      "max": [
        5.0
      ],
      "min": [
        0.0416666679084301
      ],
      "type": "SCALAR"
    },
    {
      "bufferView": 4,
      "componentType": 5126,
      "count": 173,
      "max": [
        0.0,
        0.06007019057869911,
        0.0
      ],
      "min": [
        0.0,
        -5.598928928375244,
        0.0
      ],
      "type": "VEC3"
    },
    {
      "bufferView": 3,
      "byteOffset": 692,
      "componentType": 5126,
      "count": 174,
      "max": [
        5.0
      ],
      "min": [
        0.0416666679084301
      ],
      "type": "SCALAR"
    },
    {
      "bufferView": 4,
      "byteOffset": 2076,
      "componentType": 5126,
      "count": 174,
      "max": [
        0.0,
        0.0,
        0.0
      ],
      "min": [
        0.0,
        -5.04546594619751,
        0.0
      ],
      "type": "VEC3"
    },
    {
      "bufferView": 3,
      "byteOffset": 1388,
      "componentType": 5126,
      "count": 150,
      "max": [
        5.0
      ],
      "min": [
        0.0416666679084301
      ],
      "type": "SCALAR"
    },
    {
      "bufferView": 5,
      "componentType": 5126,
      "count": 150,
      "max": [
        8.362719892294755e-17,
        1.0,
        8.362719892294755e-17,
        1.0
      ],
      "min": [
        -8.656605252534025e-17,
        -0.8532402515411377,
        -8.656605252534025e-17,
        -0.49931564927101135
      ],
      "type": "VEC4"
    },
    {
      "bufferView": 3,
      "byteOffset": 1988,
      "componentType": 5126,
      "count": 149,
      "max": [
        5.0
      ],
      "min": [
        0.0416666679084301
      ],
      "type": "SCALAR"
    },
    {
      "bufferView": 5,
      "byteOffset": 2400,
      "componentType": 5126,
      "count": 149,
      "max": [
        0.9999686479568481,
        0.0,
        0.0,
        1.0
      ],
      "min": [
        -0.8624839186668396,
        0.0,
        0.0,
        -0.4923597574234009
      ],
      "type": "VEC4"
    }
  ],
  "animations": [
    {
      "channels": [
        {
          "sampler": 0,
          "target": {
            "node": 7,
            "path": "translation"
          }
        },
        {
          "sampler": 1,
          "target": {
            "node": 9,
            "path": "translation"
          }
        },
        {
          "sampler": 2,
          "target": {
            "node": 11,
            "path": "rotation"
          }
        },
        {
          "sampler": 3,
          "target": {
            "node": 13,
            "path": "rotation"
          }
        }
      ],
      "name": "Take 001",
      "samplers": [
        {
          "input": 25,
          "interpolation": "LINEAR",
          "output": 26
        },
        {
          "input": 27,
          "interpolation": "LINEAR",
          "output": 28
        },
        {
          "input": 29,
          "interpolation": "LINEAR",
          "output": 30
        },
        {
          "input": 31,
          "interpolation": "LINEAR",
          "output": 32
        }
      ]
    }
  ],
  "asset": {
    "extras": {
      "author": "Anaïs Faure (https://sketchfab.com/draeskai)",
      "license": "CC-BY-4.0 (http://creativecommons.org/licenses/by/4.0/)",
      "source": "https://sketchfab.com/3d-models/teascroll-clubhouse-fountain-prop-3d333298326f4d1198c98940e5c73924",
      "title": "TeaScroll Clubhouse - Fountain Prop"
    },
    "generator": "Sketchfab-12.68.0",
    "version": "2.0"
  },
  "bufferViews": [
    {
      "buffer": 0,
      "byteLength": 23604,
      "name": "floatBufferViews",
      "target": 34963
    },
    {
      "buffer": 0,
      "byteLength": 32816,
      "byteOffset": 23604,
      "byteStride": 8,
      "name": "floatBufferViews",
      "target": 34962
    },
    {
      "buffer": 0,
      "byteLength": 49224,
      "byteOffset": 56420,
      "byteStride": 12,
      "name": "floatBufferViews",
      "target": 34962
    },
    {
      "buffer": 0,
      "byteLength": 2584,
      "byteOffset": 105644,
      "name": "floatBufferViews"
    },
    {
      "buffer": 0,
      "byteLength": 4164,
      "byteOffset": 108228,
      "byteStride": 12,
      "name": "floatBufferViews"
    },
    {
      "buffer": 0,
      "byteLength": 4784,
      "byteOffset": 112392,
      "byteStride": 16,
      "name": "floatBufferViews"
    }
  ],
  "buffers": [
    {
      "byteLength": 117176,
      "uri": "scene.bin"
    }
  ],
  "extensionsRequired": [
    "KHR_materials_pbrSpecularGlossiness"
  ],
  "extensionsUsed": [
    "KHR_materials_pbrSpecularGlossiness"
  ],
  "images": [
    {
      "uri": "textures/lambert1_diffuse.png"
    }
  ],
  "materials": [
    {
      "extensions": {
        "KHR_materials_pbrSpecularGlossiness": {
          "diffuseFactor": [
            1.0,
            1.0,
            1.0,
            1.0
          ],
          "diffuseTexture": {
            "index": 0
          },
          "glossinessFactor": 0.0,
          "specularFactor": [
            0.0,
            0.0,
            0.0
          ]
        }
      },
      "name": "lambert1"
    }
  ],
  "meshes": [
    {
      "name": "SM_Fountain_01_lambert1_0",
      "primitives": [
        {
          "attributes": {
            "NORMAL": 1,
            "POSITION": 0,
            "TEXCOORD_0": 2,
            "TEXCOORD_1": 3
          },
          "indices": 4,
          "material": 0,
          "mode": 4
        }
      ]
    },
    {
      "name": "AM_WaterSplasheSmall_01_lambert1_0",
      "primitives": [
        {
          "attributes": {
            "NORMAL": 6,
            "POSITION": 5,
            "TEXCOORD_0": 7,
            "TEXCOORD_1": 8
          },
          "indices": 9,
          "material": 0,
          "mode": 4
        }
      ]
    },
    {
      "name": "AM_WaterSplasheBig_01_lambert1_0",
      "primitives": [
        {
          "attributes": {
            "NORMAL": 11,
            "POSITION": 10,
            "TEXCOORD_0": 12,
            "TEXCOORD_1": 13
          },
          "indices": 14,
          "material": 0,
          "mode": 4
        }
      ]
    },
    {
      "name": "AM_WaterPound_01_lambert1_0",
      "primitives": [
        {
          "attributes": {
            "NORMAL": 16,
            "POSITION": 15,
            "TEXCOORD_0": 17,
            "TEXCOORD_1": 18
          },
          "indices": 19,
          "material": 0,
          "mode": 4
        }
      ]
    },
    {
      "name": "AM_WaterFall_01_lambert1_0",
      "primitives": [
        {
          "attributes": {
            "NORMAL": 21,
            "POSITION": 20,
            "TEXCOORD_0": 22,
            "TEXCOORD_1": 23
          },
          "indices": 24,
          "material": 0,
          "mode": 4
        }
      ]
    }
  ],
  "nodes": [
    {
      "children": [
        1
      ],
      "matrix": [
        1.4285714626312256,
        0.0,
        0.0,
        0.0,
        0.0,
        3.172065860271246e-16,
        -1.4285714626312256,
        0.0,
        0.0,
        1.4285714626312256,
        3.172065860271246e-16,
        0.0,
        0.0,
        0.0,
        0.0,
        1.0
      ],
      "name": "Sketchfab_model"
    },
    {
      "children": [
        2
      ],
      "matrix": [
        1.0,
        0.0,
        0.0,
        0.0,
        0.0,
        0.0,
        1.0,
        0.0,
        0.0,
        -1.0,
        0.0,
        0.0,
        0.0,
        0.0,
        0.0,
        1.0
      ],
      "name": "6756fd20273b4b0fbd2ec4393f74602f.fbx"
    },
    {
      "children": [
        3
      ],
      "name": "Object_2"
    },
    {
      "children": [
        4
      ],
      "name": "RootNode"
    },
    {
      "children": [
        5,
        7,
        9,
        11,
        13
      ],
      "name": "Fountain_01",
      "scale": [
        0.009999999776482582,
        0.009999999776482582,
        0.009999999776482582
      ]
    },
    {
      "children": [
        6
      ],
      "name": "SM_Fountain_01"
    },
    {
      "mesh": 0,
      "name": "SM_Fountain_01_lambert1_0"
    },
    {
      "children": [
        8
      ],
      "name": "AM_WaterSplasheSmall_01",
      "translation": [
        0.0,
        -4.092674732208252,
        0.0
      ]
    },
    {
      "mesh": 1,
      "name": "AM_WaterSplasheSmall_01_lambert1_0"
    },
    {
      "children": [
        10
      ],
      "name": "AM_WaterSplasheBig_01"
    },
    {
      "mesh": 2,
      "name": "AM_WaterSplasheBig_01_lambert1_0"
    },
    {
      "children": [
        12
      ],
      "name": "AM_WaterPound_01"
    },
    {
      "mesh": 3,
      "name": "AM_WaterPound_01_lambert1_0"
    },
    {
      "children": [
        14
      ],
      "name": "AM_WaterFall_01",
      "translation": [
        6.103515625e-05,
        41.47248458862305,
        29.005111694335938
      ]
    },
    {
      "mesh": 4,
      "name": "AM_WaterFall_01_lambert1_0"
    }
  ],
  "samplers": [
    {
      "magFilter": 9729,
      "minFilter": 9987,
      "wrapS": 10497,
      "wrapT": 10497
    }
  ],
  "scene": 0,
  "scenes": [
    {
      "name": "Sketchfab_Scene",
      "nodes": [
        0
      ]
    }
  ],
  "textures": [
    {
      "sampler": 0,
      "source": 0
    }
  ]
}
