{
  "accessors": [
    {
      "bufferView": 2,
      "componentType": 5126,
      "count": 8298,
      "max": [
        -505.07574462890625,
        890.9830322265625,
        901.0414428710938
      ],
      "min": [
        -1129.30224609375,
        18.643569946289063,
        -66.20526123046875
      ],
      "type": "VEC3"
    },
    {
      "bufferView": 2,
      "byteOffset": 99576,
      "componentType": 5126,
      "count": 8298,
      "max": [
        1.0,
        1.0,
        1.0
      ],
      "min": [
        -1.0,
        -1.0,
        -1.0
      ],
      "type": "VEC3"
    },
    {
      "bufferView": 3,
      "componentType": 5126,
      "count": 8298,
      "max": [
        1.0,
        1.0,
        1.0,
        1.0
      ],
      "min": [
        -1.0,
        -1.0,
        -1.0,
        -1.0
      ],
      "type": "VEC4"
    },
    {
      "bufferView": 1,
      "componentType": 5126,
      "count": 8298,
      "max": [
        2.001272678375244,
        0.9999175071716309
      ],
      "min": [
        -1.0043306350708008,
        -0.022431842982769012
      ],
      "type": "VEC2"
    },
    {
      "bufferView": 0,
      "componentType": 5125,
      "count": 19404,
      "type": "SCALAR"
    }
  ],
  "asset": {
    "extras": {
      "author": "Alex Fillion (https://sketchfab.com/dougitougi123)",
      "license": "CC-BY-4.0 (http://creativecommons.org/licenses/by/4.0/)",
      "source": "https://sketchfab.com/3d-models/alex-fillion-fantasy-house-c05206254eae4133bf0a784dfa2f542a",
      "title": "Alex Fillion | Fantasy House"
    },
    "generator": "Sketchfab-12.68.0",
    "version": "2.0"
  },
  "bufferViews": [
    {
      "buffer": 0,
      "byteLength": 77616,
      "name": "floatBufferViews",
      "target": 34963
    },
    {
      "buffer": 0,
      "byteLength": 66384,
      "byteOffset": 77616,
      "byteStride": 8,
      "name": "floatBufferViews",
      "target": 34962
    },
    {
      "buffer": 0,
      "byteLength": 199152,
      "byteOffset": 144000,
      "byteStride": 12,
      "name": "floatBufferViews",
      "target": 34962
    },
    {
      "buffer": 0,
      "byteLength": 132768,
      "byteOffset": 343152,
      "byteStride": 16,
      "name": "floatBufferViews",
      "target": 34962
    }
  ],
  "buffers": [
    {
      "byteLength": 475920,
      "uri": "scene.bin"
    }
  ],
  "images": [
    {
      "uri": "textures/Trimsheet_baseColor.png"
    },
    {
      "uri": "textures/Trimsheet_metallicRoughness.png"
    },
    {
      "uri": "textures/Trimsheet_emissive.png"
    },
    {
      "uri": "textures/Trimsheet_normal.png"
    }
  ],
  "materials": [
    {
      "alphaMode": "BLEND",
      "doubleSided": true,
      "emissiveFactor": [
        0.5838578902,
        0.5838578902,
        0.5838578902
      ],
      "emissiveTexture": {
        "index": 2
      },
      "name": "Trimsheet",
      "normalTexture": {
        "index": 3,
        "scale": 0.7502096884
      },
      "pbrMetallicRoughness": {
        "baseColorTexture": {
          "index": 0
        },
        "metallicRoughnessTexture": {
          "index": 1
        }
      }
    }
  ],
  "meshes": [
    {
      "name": "polySurface845_Trimsheet_0",
      "primitives": [
        {
          "attributes": {
            "NORMAL": 1,
            "POSITION": 0,
            "TANGENT": 2,
            "TEXCOORD_0": 3
          },
          "indices": 4,
          "material": 0,
          "mode": 4
        }
      ]
    }
  ],
  "nodes": [
    {
      "children": [
        1
      ],
      "matrix": [
        1.0,
        0.0,
        0.0,
        0.0,
        0.0,
        2.220446049250313e-16,
        -1.0,
        0.0,
        0.0,
        1.0,
        2.220446049250313e-16,
        0.0,
        0.0,
        0.0,
        0.0,
        1.0
      ],
      "name": "Sketchfab_model"
    },
    {
      "children": [
        2
      ],
      "matrix": [
        1.0,
        0.0,
        0.0,
        0.0,
        0.0,
        0.0,
        1.0,
        0.0,
        0.0,
        -1.0,
        0.0,
        0.0,
        0.0,
        0.0,
        0.0,
        1.0
      ],
      "name": "2a4d3008f9534f0e88ad1a561e035b31.fbx"
    },
    {
      "children": [
        3,
        5
      ],
      "name": "RootNode"
    },
    {
      "children": [
        4
      ],
      "matrix": [
        0.0,
        1.0,
        -3.3306690738754696e-16,
        0.0,
        -1.1102230246251565e-16,
        2.220446049250313e-16,
        1.0,
        0.0,
        1.0,
        -1.1102230246251565e-16,
        0.0,
        0.0,
        -942.9168090820313,
        -1758.7760009765625,
        221.11468505859375,
        1.0
      ],
      "name": "bottom"
    },
    {
      "name": "Object_4"
    },
    {
      "children": [
        6
      ],
      "matrix": [
        1.0,
        0.0,
        0.0,
        0.0,
        0.0,
        1.0,
        0.0,
        0.0,
        0.0,
        0.0,
        1.0,
        0.0,
        824.4494018554688,
        0.0,
        -350.18017578125,
        1.0
      ],
      "name": "polySurface845"
    },
    {
      "mesh": 0,
      "name": "polySurface845_Trimsheet_0"
    }
  ],
  "samplers": [
    {
      "magFilter": 9729,
      "minFilter": 9987,
      "wrapS": 10497,
      "wrapT": 10497
    }
  ],
  "scene": 0,
  "scenes": [
    {
      "name": "Sketchfab_Scene",
      "nodes": [
        0
      ]
    }
  ],
  "textures": [
    {
      "sampler": 0,
      "source": 0
    },
    {
      "sampler": 0,
      "source": 1
    },
    {
      "sampler": 0,
      "source": 2
    },
    {
      "sampler": 0,
      "source": 3
    }
  ]
}
